<svg width="400" height="400" viewBox="0 0 400 400" fill="none" xmlns="http://www.w3.org/2000/svg">
<circle cx="200" cy="200" r="200" fill="#3B82F6"/>
<path d="M39 298C61.5656 281.2 76.8959 247.603 69.9784 207.567H64.5016V183H122.693C130.029 255.759 104.319 293.756 39 298Z" fill="white"/>
<ellipse cx="90.887" cy="124" rx="37.7358" ry="40" fill="white"/>
<path d="M238.672 141.976C245.008 141.976 251.152 143.8 257.104 147.448C263.248 151.096 266.992 154.744 268.336 158.392C270.064 157.624 272.848 156.28 276.688 154.36C280.72 152.248 283.888 150.712 286.192 149.752C288.496 148.6 291.376 147.352 294.832 146.008C300.976 143.32 307.408 141.976 314.128 141.976C326.224 141.976 335.728 145.912 342.64 153.784C349.744 161.464 353.296 172.792 353.296 187.768V249.112C353.296 250.84 353.392 252.28 353.584 253.432C353.968 254.392 355.12 255.448 357.04 256.6C358.96 257.56 361.744 258.04 365.392 258.04L368.56 271.864C348.4 271.288 335.728 271 330.544 271C325.36 271 316.336 271.288 303.472 271.864L300.592 258.04C307.12 257.848 311.536 257.08 313.84 255.736C316.144 254.2 317.392 251.992 317.584 249.112V197.272C317.584 186.712 315.76 179.224 312.112 174.808C308.464 170.2 302.8 167.896 295.12 167.896C287.44 167.896 279.76 169.624 272.08 173.08C272.656 176.536 272.944 181.432 272.944 187.768L272.368 249.112C272.368 250.84 272.464 252.28 272.656 253.432C273.04 254.392 274.192 255.448 276.112 256.6C278.032 257.56 280.816 258.04 284.464 258.04L287.632 271.864C267.472 271.288 254.8 271 249.616 271C244.432 271 235.408 271.288 222.544 271.864L219.664 258.04C226.192 257.848 230.608 257.08 232.912 255.736C235.216 254.2 236.464 251.992 236.656 249.112V197.272C236.656 183.256 233.68 174.424 227.728 170.776C224.656 168.856 220.336 167.896 214.768 167.896C209.2 167.896 201.232 170.104 190.864 174.52V249.112C190.864 250.84 190.96 252.28 191.152 253.432C191.536 254.392 192.688 255.448 194.608 256.6C196.528 257.56 199.312 258.04 202.96 258.04L206.128 271.864C185.968 271.288 173.296 271 168.112 271C162.928 271 153.904 271.288 141.04 271.864L138.16 258.04C144.688 257.848 149.104 257.08 151.408 255.736C153.712 254.2 154.96 251.992 155.152 249.112V179.992C155.152 175.384 154.096 172.216 151.984 170.488C149.872 168.568 147.184 167.608 143.92 167.608C140.848 167.608 138.544 167.704 137.008 167.896L132.976 156.088C144.88 153.208 161.008 147.736 181.36 139.672C183.856 139.672 185.392 140.248 185.968 141.4C186.736 142.36 187.312 143.224 187.696 143.992C188.08 144.76 188.368 145.816 188.56 147.16C188.752 148.504 188.848 149.656 188.848 150.616C188.848 151.576 188.944 153.016 189.136 154.936C189.328 156.856 189.424 158.296 189.424 159.256C189.808 159.064 191.344 158.296 194.032 156.952C196.912 155.416 199.312 154.168 201.232 153.208C203.344 152.248 206.128 151 209.584 149.464C213.04 147.928 216.112 146.68 218.8 145.72C225.712 143.224 232.336 141.976 238.672 141.976Z" fill="white"/>
</svg>
